# xmcd
#
# Track frame offsets:
#	150
#	12245
#	24015
#	35158
#	47827
#	60526
#	70981
#	81943
#	95012
#	108935
#	123263
#	133549
#	143842
#	156049
#	169910
#	181208
#	191575
#	205804
#	223824
#
# Disc length: 3184 seconds
#
# Revision: 0
# Processed by: cddbd v1.5.1PL0 Copyright (c) Steve Scherf et al.
# Submitted via: dBpowerAMP V4.0
#
DISCID=0b0c6e13
DTITLE=Diverse Artists - The World Of Blues
DYEAR=1900
DGENRE=
TTITLE0=Bobby Bland - Don't Want No Woman
TTITLE1=Blue Smitty - Date Bait
TTITLE2=Johnny Shines - So Glad I Found You
TTITLE3=Jimmy Rogers - Walking By Myself
TTITLE4=Etta James - Spoonful
TTITLE5=Buddy Guy - First Time I Met The Blues
TTITLE6=Eddie Burns - Treat Me Like I Treat You
TTITLE7=Slim Harpo - Scratch My Back
TTITLE8=Chuck Berry - Wee Wee Hours
TTITLE9=Lowell Fulson - Reconsider, Baby
TTITLE10=Elmore James - Talk To Me Baby
TTITLE11=Little Milton - What Kind Of Love Is That
TTITLE12=Memphis Slim - Mother Earth
TTITLE13=Willie Dixon - Walking The Blues
TTITLE14=Jimmy Reed - Ain't No Time For Fussin'
TTITLE15=Dale Hawkins - Susie Q
TTITLE16=Sonny Boy Williamson - Help Me
TTITLE17=Muddy Waters - My Home Is The Delta
TTITLE18=Blind Willie Johnson - Dark Was The Night-Cold Was The Ground
EXTD=The World Of Blues
EXTT0=
EXTT1=
EXTT2=
EXTT3=
EXTT4=
EXTT5=
EXTT6=
EXTT7=
EXTT8=
EXTT9=
EXTT10=
EXTT11=
EXTT12=
EXTT13=
EXTT14=
EXTT15=
EXTT16=
EXTT17=
EXTT18=
PLAYORDER=
